0
SECTION
2
HEADER
9
$INSUNITS
70
4
0
ENDSEC
0
SECTION
2
TABLES
0
TABLE
2
LTYPE
0
LTYPE
72
65
70
64
2
CONTINUOUS
3
______
73
0
40
0
0
ENDTAB
0
TABLE
2
LAYER
0
ENDTAB
0
ENDSEC
0
SECTION
2
ENTITIES
0
LINE
8
0
10
274.3408917
20
-123.1178602
11
287.51626
21
-137.2942882
0
LINE
8
0
10
298.2610234
20
-138.1836346
11
322.1247306
21
-119.7842947
0
LINE
8
0
10
326.1862139
20
-118.1622895
11
384.3688194
21
-112.142524
0
LINE
8
0
10
391.5455074
20
-104.1850019
11
391.5455074
21
-61.5273716
0
LINE
8
0
10
387.0157523
20
-54.3192234
11
365.7260679
21
-44.0696528
0
LINE
8
0
10
364.0988198
20
-43.4929849
11
344.5256025
21
-38.8591717
0
LINE
8
0
10
341.4311296
20
-38.7424812
11
323.9519185
21
-41.5109163
0
LINE
8
0
10
322.5523281
20
-41.8644532
11
285.7577876
21
-54.7877674
0
LINE
8
0
10
284.7700148
20
-55.0649785
11
267.6661502
21
-58.7005172
0
LINE
8
0
10
261.504263
20
-68.1889916
11
272.3756791
21
-119.3349833
0
ARC
8
0
10
293.3762282
20
-131.8481177
40
8
50
222.9039458
51
307.6328571
0
ARC
8
0
10
327.0095259
20
-126.1198116
40
8
50
95.9069962
51
127.6328571
0
ARC
8
0
10
383.5455074
20
-104.1850019
40
8
50
275.9069962
51
0
0
ARC
8
0
10
383.5455074
20
-61.5273716
40
8
50
0
51
64.2922723
0
ARC
8
0
10
362.255823
20
-51.277801
40
8
50
64.2922723
51
76.6808727
0
ARC
8
0
10
342.6826056
20
-46.6439879
40
8
50
76.6808727
51
99.0000023
0
ARC
8
0
10
325.2033945
20
-49.4124229
40
8
50
99.0000023
51
109.352758
0
ARC
8
0
10
283.1067212
20
-47.2397977
40
8
50
282.0000005
51
289.352758
0
ARC
8
0
10
269.3294438
20
-66.525698
40
8
50
102.0000005
51
192.0000005
0
ARC
8
0
10
280.2008599
20
-117.6716897
40
8
50
192.0000005
51
222.9039458
0
LINE
8
0
10
370.7955074
20
-108.25
11
388.2955074
21
-108.25
0
LINE
8
0
10
388.2955074
20
-108.25
11
388.2955074
21
-91.75
0
LINE
8
0
10
388.2955074
20
-91.75
11
370.7955074
21
-91.75
0
LINE
8
0
10
370.7955074
20
-91.75
11
370.7955074
21
-108.25
0
LINE
8
0
10
370.7955074
20
-91.25
11
388.2955074
21
-91.25
0
LINE
8
0
10
388.2955074
20
-91.25
11
388.2955074
21
-74.75
0
LINE
8
0
10
388.2955074
20
-74.75
11
370.7955074
21
-74.75
0
LINE
8
0
10
370.7955074
20
-74.75
11
370.7955074
21
-91.25
0
LINE
8
0
10
370.7955074
20
-74.25
11
388.2955074
21
-74.25
0
LINE
8
0
10
388.2955074
20
-74.25
11
388.2955074
21
-57.75
0
LINE
8
0
10
388.2955074
20
-57.75
11
370.7955074
21
-57.75
0
LINE
8
0
10
370.7955074
20
-57.75
11
370.7955074
21
-74.25
0
LINE
8
0
10
351.7058006
20
-97.1194297
11
369.1099338
21
-95.2901816
0
LINE
8
0
10
369.1099338
20
-95.2901816
11
367.3852142
21
-78.8805703
0
LINE
8
0
10
367.3852142
20
-78.8805703
11
349.981081
21
-80.7098184
0
LINE
8
0
10
349.981081
20
-80.7098184
11
351.7058006
21
-97.1194297
0
LINE
8
0
10
349.9288167
20
-80.2125575
11
367.3329499
21
-78.3833094
0
LINE
8
0
10
367.3329499
20
-78.3833094
11
365.6082303
21
-61.9736981
0
LINE
8
0
10
365.6082303
20
-61.9736981
11
348.2040971
21
-63.8029462
0
LINE
8
0
10
348.2040971
20
-63.8029462
11
349.9288167
21
-80.2125575
0
LINE
8
0
10
348.1518328
20
-63.3056853
11
365.555966
21
-61.4764372
0
LINE
8
0
10
365.555966
20
-61.4764372
11
363.8312464
21
-45.0668259
0
LINE
8
0
10
363.8312464
20
-45.0668259
11
346.4271132
21
-46.896074
0
LINE
8
0
10
346.4271132
20
-46.896074
11
348.1518328
21
-63.3056853
0
LINE
8
0
10
332.5662035
20
-92.5416179
11
349.8507494
21
-89.8040147
0
LINE
8
0
10
349.8507494
20
-89.8040147
11
347.2695807
21
-73.5071571
0
LINE
8
0
10
347.2695807
20
-73.5071571
11
329.9850348
21
-76.2447603
0
LINE
8
0
10
329.9850348
20
-76.2447603
11
332.5662035
21
-92.5416179
0
LINE
8
0
10
329.9068176
20
-75.7509161
11
347.1913635
21
-73.0133129
0
LINE
8
0
10
347.1913635
20
-73.0133129
11
344.6101948
21
-56.7164553
0
LINE
8
0
10
344.6101948
20
-56.7164553
11
327.3256489
21
-59.4540585
0
LINE
8
0
10
327.3256489
20
-59.4540585
11
329.9068176
21
-75.7509161
0
LINE
8
0
10
327.2474317
20
-58.9602143
11
344.5319776
21
-56.2226111
0
LINE
8
0
10
344.5319776
20
-56.2226111
11
341.9508089
21
-39.9257535
0
LINE
8
0
10
341.9508089
20
-39.9257535
11
324.666263
21
-42.6633567
0
LINE
8
0
10
324.666263
20
-42.6633567
11
327.2474317
21
-58.9602143
0
LINE
8
0
10
314.9600256
20
-99.6841118
11
332.1385013
21
-96.3449544
0
LINE
8
0
10
332.1385013
20
-96.3449544
11
328.9901528
21
-80.1481058
0
LINE
8
0
10
328.9901528
20
-80.1481058
11
311.8116771
21
-83.4872632
0
LINE
8
0
10
311.8116771
20
-83.4872632
11
314.9600256
21
-99.6841118
0
LINE
8
0
10
311.7162727
20
-82.9964497
11
328.8947484
21
-79.6572923
0
LINE
8
0
10
328.8947484
20
-79.6572923
11
325.7463999
21
-63.4604437
0
LINE
8
0
10
325.7463999
20
-63.4604437
11
308.5679242
21
-66.7996011
0
LINE
8
0
10
308.5679242
20
-66.7996011
11
311.7162727
21
-82.9964497
0
LINE
8
0
10
308.4725198
20
-66.3087876
11
325.6509955
21
-62.9696302
0
LINE
8
0
10
325.6509955
20
-62.9696302
11
322.502647
21
-46.7727816
0
LINE
8
0
10
322.502647
20
-46.7727816
11
305.3241713
21
-50.111939
0
LINE
8
0
10
305.3241713
20
-50.111939
11
308.4725198
21
-66.3087876
0
LINE
8
0
10
297.2549215
20
-105.3173554
11
314.3725046
21
-101.6789008
0
LINE
8
0
10
314.3725046
20
-101.6789008
11
310.9419617
21
-85.5394654
0
LINE
8
0
10
310.9419617
20
-85.5394654
11
293.8243786
21
-89.17792
0
LINE
8
0
10
293.8243786
20
-89.17792
11
297.2549215
21
-105.3173554
0
LINE
8
0
10
293.7204228
20
-88.6888462
11
310.8380059
21
-85.0503916
0
LINE
8
0
10
310.8380059
20
-85.0503916
11
307.407463
21
-68.9109562
0
LINE
8
0
10
307.407463
20
-68.9109562
11
290.2898799
21
-72.5494108
0
LINE
8
0
10
290.2898799
20
-72.5494108
11
293.7204228
21
-88.6888462
0
LINE
8
0
10
290.1859241
20
-72.060337
11
307.3035072
21
-68.4218824
0
LINE
8
0
10
307.3035072
20
-68.4218824
11
303.8729643
21
-52.282447
0
LINE
8
0
10
303.8729643
20
-52.282447
11
286.7553812
21
-55.9209016
0
LINE
8
0
10
286.7553812
20
-55.9209016
11
290.1859241
21
-72.060337
0
LINE
8
0
10
306.6511589
20
-125.7948039
11
322.2437731
21
-117.8499702
0
LINE
8
0
10
322.2437731
20
-117.8499702
11
314.7529299
21
-103.1483625
0
LINE
8
0
10
314.7529299
20
-103.1483625
11
299.1603157
21
-111.0931962
0
LINE
8
0
10
299.1603157
20
-111.0931962
11
306.6511589
21
-125.7948039
0
LINE
8
0
10
292.790564
20
-138.1229313
11
305.7955984
21
-126.4131457
0
LINE
8
0
10
305.7955984
20
-126.4131457
11
294.7549434
21
-114.1512561
0
LINE
8
0
10
294.7549434
20
-114.1512561
11
281.749909
21
-125.8610417
0
LINE
8
0
10
281.749909
20
-125.8610417
11
292.790564
21
-138.1229313
0
ENDSEC
0
EOF