0
SECTION
2
HEADER
9
$INSUNITS
70
4
0
ENDSEC
0
SECTION
2
TABLES
0
TABLE
2
LTYPE
0
LTYPE
72
65
70
64
2
CONTINUOUS
3
______
73
0
40
0
0
ENDTAB
0
TABLE
2
LAYER
0
ENDTAB
0
ENDSEC
0
SECTION
2
ENTITIES
0
LINE
8
0
10
90
20
-109.5
11
110
21
-109.5
0
LINE
8
0
10
110
20
-109.5
11
110
21
-96.5012863
0
LINE
8
0
10
90
20
-109.5
11
90
21
-56.5
0
LINE
8
0
10
110
20
-87.4759218
11
110
21
-56.5
0
LINE
8
0
10
110
20
-56.5
11
90
21
-56.5
0
LINE
8
0
10
110
20
-96.5012863
11
128.9521986
21
-98.4932426
0
LINE
8
0
10
128.9521986
20
-98.4932426
11
129.731838
21
-91.0754691
0
LINE
8
0
10
110
20
-87.4759218
11
114.6017692
21
-43.693013
0
LINE
8
0
10
132.698812
20
-62.8465977
11
134.4922072
21
-45.7835822
0
LINE
8
0
10
134.4922072
20
-45.7835822
11
114.6017692
21
-43.693013
0
LINE
8
0
10
129.731838
20
-91.0754691
11
146.6374252
21
-93.753051
0
LINE
8
0
10
132.698812
20
-62.8465977
11
136.5556311
21
-38.4956
0
LINE
8
0
10
154.2817032
20
-54.42665
11
156.3093979
21
-41.6242893
0
LINE
8
0
10
156.3093979
20
-41.6242893
11
136.5556311
21
-38.4956
0
LINE
8
0
10
145.9414609
20
-97.3334771
11
164.0697234
21
-100.8572544
0
LINE
8
0
10
146.6374252
20
-93.753051
11
145.9414609
21
-97.3334771
0
LINE
8
0
10
175.3351707
20
-50.9328105
11
175.6868813
21
-49.1234163
0
LINE
8
0
10
175.6868813
20
-49.1234163
11
156.0543376
21
-45.3072364
0
LINE
8
0
10
156.0543376
20
-45.3072364
11
154.2817032
21
-54.42665
0
LINE
8
0
10
168.5994072
20
-103.6851313
11
183.2533807
21
-106.7999295
0
LINE
8
0
10
183.2533807
20
-106.7999295
11
194.2727003
21
-54.9581067
0
LINE
8
0
10
164.0697234
20
-100.8572544
11
163.7209193
21
-102.4982485
0
LINE
8
0
10
194.2727003
20
-54.9581067
11
175.3351707
21
-50.9328105
0
LINE
8
0
10
155.620488
20
-118.3962402
11
172.5691202
21
-127.0319996
0
LINE
8
0
10
176.4775955
20
-121.5156473
11
182.066438
21
-110.5469262
0
LINE
8
0
10
182.066438
20
-110.5469262
11
168.5994072
21
-103.6851313
0
LINE
8
0
10
163.7209193
20
-102.4982485
11
155.620488
21
-118.3962402
0
LINE
8
0
10
172.5691202
20
-127.0319996
11
186.8474612
21
-139.8882756
0
LINE
8
0
10
186.8474612
20
-139.8882756
11
199.5609427
21
-125.7685239
0
LINE
8
0
10
199.5609427
20
-125.7685239
11
184.6980462
21
-112.3859118
0
LINE
8
0
10
184.6980462
20
-112.3859118
11
176.4775955
21
-121.5156473
0
LINE
8
0
10
369.5455074
20
-109.5
11
389.5455074
21
-109.5
0
LINE
8
0
10
389.5455074
20
-109.5
11
389.5455074
21
-56.5
0
LINE
8
0
10
369.5455074
20
-96.5012863
11
369.5455074
21
-109.5
0
LINE
8
0
10
369.5455074
20
-87.4759218
11
369.5455074
21
-56.5
0
LINE
8
0
10
389.5455074
20
-56.5
11
369.5455074
21
-56.5
0
LINE
8
0
10
350.5933088
20
-98.4932426
11
369.5455074
21
-96.5012863
0
LINE
8
0
10
364.9437382
20
-43.693013
11
369.5455074
21
-87.4759218
0
LINE
8
0
10
349.8136694
20
-91.0754691
11
350.5933088
21
-98.4932426
0
LINE
8
0
10
345.0533002
20
-45.7835822
11
346.8466954
21
-62.8465977
0
LINE
8
0
10
364.9437382
20
-43.693013
11
345.0533002
21
-45.7835822
0
LINE
8
0
10
332.9080822
20
-93.753051
11
349.8136694
21
-91.0754691
0
LINE
8
0
10
342.9898763
20
-38.4956
11
346.8466954
21
-62.8465977
0
LINE
8
0
10
342.9898763
20
-38.4956
11
323.2361095
21
-41.6242893
0
LINE
8
0
10
323.2361095
20
-41.6242893
11
325.2638042
21
-54.42665
0
LINE
8
0
10
315.475784
20
-100.8572544
11
333.6040465
21
-97.3334771
0
LINE
8
0
10
333.6040465
20
-97.3334771
11
332.9080822
21
-93.753051
0
LINE
8
0
10
325.2638042
20
-54.42665
11
323.4911698
21
-45.3072364
0
LINE
8
0
10
323.4911698
20
-45.3072364
11
303.8586261
21
-49.1234163
0
LINE
8
0
10
303.8586261
20
-49.1234163
11
304.2103367
21
-50.9328105
0
LINE
8
0
10
296.2921267
20
-106.7999295
11
310.9461002
21
-103.6851313
0
LINE
8
0
10
315.8245881
20
-102.4982485
11
315.475784
21
-100.8572544
0
LINE
8
0
10
285.2728071
20
-54.9581067
11
296.2921267
21
-106.7999295
0
LINE
8
0
10
304.2103367
20
-50.9328105
11
285.2728071
21
-54.9581067
0
LINE
8
0
10
306.9763872
20
-127.0319996
11
323.9250194
21
-118.3962402
0
LINE
8
0
10
323.9250194
20
-118.3962402
11
315.8245881
21
-102.4982485
0
LINE
8
0
10
310.9461002
20
-103.6851313
11
297.4790694
21
-110.5469262
0
LINE
8
0
10
297.4790694
20
-110.5469262
11
303.0679119
21
-121.5156473
0
LINE
8
0
10
292.6980462
20
-139.8882756
11
306.9763872
21
-127.0319996
0
LINE
8
0
10
303.0679119
20
-121.5156473
11
294.8474612
21
-112.3859118
0
LINE
8
0
10
294.8474612
20
-112.3859118
11
279.9845647
21
-125.7685239
0
LINE
8
0
10
279.9845647
20
-125.7685239
11
292.6980462
21
-139.8882756
0
ENDSEC
0
EOF